HIERARCHY
ROOT Hips
{
	OFFSET 0.00000 0.00000 0.00000
	CHANNELS 6 Xposition Yposition Zposition Zrotation Yrotation Xrotation 
	JOINT LHipJoint
	{
		OFFSET 0 0 0
		CHANNELS 3 Zrotation Yrotation Xrotation
		JOINT LeftUpLeg
		{
			OFFSET 1.75344 -1.53157 0.77399
			CHANNELS 3 Zrotation Yrotation Xrotation
			JOINT LeftLeg
			{
				OFFSET 2.25415 -6.19323 0.00000
				CHANNELS 3 Zrotation Yrotation Xrotation
				JOINT LeftFoot
				{
					OFFSET 2.30342 -6.32861 0.00000
					CHANNELS 3 Zrotation Yrotation Xrotation
					JOINT LeftToeBase
					{
						OFFSET 0.10958 -0.30108 1.49206
						CHANNELS 3 Zrotation Yrotation Xrotation
						End Site
						{
							OFFSET 0.00000 -0.00000 0.77783
						}
					}
				}
			}
		}
	}
	JOINT RHipJoint
	{
		OFFSET 0 0 0
		CHANNELS 3 Zrotation Yrotation Xrotation
		JOINT RightUpLeg
		{
			OFFSET -1.81912 -1.53156 0.77399
			CHANNELS 3 Zrotation Yrotation Xrotation
			JOINT RightLeg
			{
				OFFSET -2.22882 -6.12365 0.00000
				CHANNELS 3 Zrotation Yrotation Xrotation
				JOINT RightFoot
				{
					OFFSET -2.21943 -6.09785 0.00000
					CHANNELS 3 Zrotation Yrotation Xrotation
					JOINT RightToeBase
					{
						OFFSET -0.18931 -0.52012 1.59379
						CHANNELS 3 Zrotation Yrotation Xrotation
						End Site
						{
							OFFSET -0.00000 -0.00000 0.84686
						}
					}
				}
			}
		}
	}
	JOINT LowerBack
	{
		OFFSET 0 0 0
		CHANNELS 3 Zrotation Yrotation Xrotation
		JOINT Spine
		{
			OFFSET -0.00200 1.66634 -0.14248
			CHANNELS 3 Zrotation Yrotation Xrotation
			JOINT Spine1
			{
				OFFSET -0.00875 1.64542 0.09514
				CHANNELS 3 Zrotation Yrotation Xrotation
				JOINT Neck
				{
					OFFSET 0 0 0
					CHANNELS 3 Zrotation Yrotation Xrotation
					JOINT Neck1
					{
						OFFSET 0.02257 1.59605 0.00839
						CHANNELS 3 Zrotation Yrotation Xrotation
						JOINT Head
						{
							OFFSET -0.10214 1.57530 -0.23335
							CHANNELS 3 Zrotation Yrotation Xrotation
							End Site
							{
								OFFSET -0.03588 1.60717 -0.08062
							}
						}
					}
				}
				JOINT LeftShoulder
				{
					OFFSET 0 0 0
					CHANNELS 3 Zrotation Yrotation Xrotation
					JOINT LeftArm
					{
						OFFSET 2.54983 1.10186 0.40078
						CHANNELS 3 Zrotation Yrotation Xrotation
						JOINT LeftForeArm
						{
							OFFSET 4.28840 -0.00000 0.00000
							CHANNELS 3 Zrotation Yrotation Xrotation
							JOINT LeftHand
							{
								OFFSET 3.06552 -0.00000 -0.00000
								CHANNELS 3 Zrotation Yrotation Xrotation
								JOINT LeftFingerBase
								{
									OFFSET 0 0 0
									CHANNELS 3 Zrotation Yrotation Xrotation
									JOINT LeftHandIndex1
									{
										OFFSET 0.75304 -0.00000 0.00000
										CHANNELS 3 Zrotation Yrotation Xrotation
										End Site
										{
											OFFSET 0.60712 -0.00000 0.00000
										}
									}
								}
								JOINT LThumb
								{
									OFFSET 0 0 0
									CHANNELS 3 Zrotation Yrotation Xrotation
									End Site
									{
										OFFSET 0.61639 -0.00000 0.61639
									}
								}
							}
						}
					}
				}
				JOINT RightShoulder
				{
					OFFSET 0 0 0
					CHANNELS 3 Zrotation Yrotation Xrotation
					JOINT RightArm
					{
						OFFSET -2.60909 1.35448 0.21802
						CHANNELS 3 Zrotation Yrotation Xrotation
						JOINT RightForeArm
						{
							OFFSET -4.52172 -0.00000 -0.00000
							CHANNELS 3 Zrotation Yrotation Xrotation
							JOINT RightHand
							{
								OFFSET -2.89140 -0.00000 0.00000
								CHANNELS 3 Zrotation Yrotation Xrotation
								JOINT RightFingerBase
								{
									OFFSET 0 0 0
									CHANNELS 3 Zrotation Yrotation Xrotation
									JOINT RightHandIndex1
									{
										OFFSET -0.68054 -0.00000 0.00000
										CHANNELS 3 Zrotation Yrotation Xrotation
										End Site
										{
											OFFSET -0.54867 -0.00000 0.00000
										}
									}
								}
								JOINT RThumb
								{
									OFFSET 0 0 0
									CHANNELS 3 Zrotation Yrotation Xrotation
									End Site
									{
										OFFSET -0.55705 -0.00000 0.55705
									}
								}
							}
						}
					}
				}
			}
		}
	}
}
MOTION
Frames: 14
Frame Time: 0.0869565
0.00 0.00 0.00 0 0 0 0 0 0 -21 0 0 0 0 0 0 0 0 0 0 0 0 0 0 21 0 0 0 0 0 0 0 0 0 0 0 0 0 0 0 0 0 0 0 0 0 0 -16 0 0 21 0 0 11 0 0 0 -8 0 0 0 0 0 0 0 0 0 0 0 0 0 0 0 0 0 0 0 0 8 0 0 0 0 0 0 0 0 0 0 0 0 0 0 0 0 0
0.00 0.00 0.00 -181.5470 2.5180 -178.3540 0.0000 0.0000 0.0000 -32.2389 -20.2209 0.5515 1.6873 8.1818 23.2677 1.6680 12.3987 -31.5865 0.7217 -5.4286 -15.1350 0.0000 0.0000 0.0000 19.0894 11.3653 -15.0383 -5.7116 -14.1429 43.8130 -1.3449 -11.5340 -28.7982 -0.0009 -0.1973 0.5422 -1.2061 1.5103 7.0806 -0.5083 1.9053 -3.4168 -0.1174 0.9963 -7.5874 -5.1660 -1.9271 -3.5605 4.4742 -2.5467 4.4717 2.2682 -1.2589 2.1866 0.0000 -0.0000 0.0000 -88.1329 19.1984 29.6369 21.1772 -32.0346 -6.1437 -0.0000 -0.0000 1.3819 10.1374 -33.1401 -5.5829 -7.1250 0.0000 -0.0000 -12.2591 -2.9005 13.1626 0.0000 -0.0000 0.0000 86.0136 -11.1436 34.9091 -18.8646 29.2501 -4.9645 0.0000 0.0000 16.1834 -3.0068 -53.8380 2.4283 7.1250 -0.0000 -0.0000 73.6581 -72.6369 -55.5315
0.00 0.00 0.00 -180.1710 -0.4719 -174.6310 0.0000 0.0000 0.0000 -31.4852 -14.5752 11.8988 0.4215 4.1670 11.5469 1.5784 9.8119 -29.0540 1.3725 -7.4142 -20.9484 0.0000 0.0000 0.0000 16.1097 30.2474 -21.8654 -1.7098 -8.2336 23.4258 0.1866 -23.2649 -31.5730 -1.0598 -6.5455 18.3755 -1.3596 0.0519 8.8118 0.5853 -0.0776 -3.4853 1.4005 0.0453 -8.6480 -4.7156 -1.8983 -2.8789 6.7091 -2.4719 -1.9232 2.9339 -1.2487 0.0460 0.0000 -0.0000 0.0000 -87.7541 8.5539 37.2826 20.9403 -31.7586 -6.0185 -0.0000 -0.0000 12.3175 9.9807 -36.3087 -5.9490 -7.1250 0.0000 -0.0000 -12.6090 -5.9645 14.1828 0.0000 -0.0000 0.0000 85.9738 -9.8235 33.1112 -17.8038 27.9052 -4.4570 0.0000 0.0000 16.9918 -4.6894 -52.4588 3.7214 7.1250 -0.0000 -0.0000 68.5493 -72.8393 -51.0519
0.00 0.00 0.00 -178.8080 -1.6832 -173.4800 0.0000 0.0000 0.0000 -24.1996 -4.3957 5.7304 2.1515 9.1747 26.3435 0.4760 -1.2979 -12.6474 1.5082 -7.7563 -21.9762 0.0000 0.0000 0.0000 24.2371 24.5693 -14.5681 -1.6254 -8.0378 22.8291 1.0947 -22.1034 -21.9001 -1.1160 -6.7110 18.8620 -2.2881 -0.5863 7.4033 0.9647 -1.0318 -4.1293 2.4628 -0.3691 -8.4695 -4.8141 -2.1043 -3.7668 7.9042 -2.6388 0.7345 3.3491 -1.1892 1.0871 -0.0000 -0.0000 0.0000 -86.5199 9.4121 39.9260 20.2742 -30.9713 -5.6718 -0.0000 -0.0000 13.4255 2.6001 -34.6045 -1.4773 -7.1250 0.0000 -0.0000 -16.4337 -3.4214 18.1291 -0.0000 -0.0000 0.0000 84.5565 -9.4318 37.8638 -18.0239 28.1878 -4.5605 0.0000 0.0000 16.5627 -4.8102 -53.2831 3.8591 7.1250 -0.0000 -0.0000 71.0708 -73.1358 -53.7035
0.00 0.00 0.00 -177.3680 -2.8148 -174.2690 0.0000 0.0000 0.0000 -19.2853 -1.5634 -3.7715 5.6353 14.0654 43.4999 -0.0092 -2.1770 -0.6570 1.2180 -7.0004 -19.7166 0.0000 0.0000 0.0000 28.3317 21.4691 -9.6781 -1.2237 -7.0163 19.7635 1.2042 -22.4965 -21.5066 -1.2136 -6.9881 19.6802 -1.1152 -0.6186 8.0765 1.0455 -0.9390 -4.0999 1.8874 -0.3815 -8.8509 -5.0498 -2.4697 -3.4814 8.0049 -3.4082 1.9950 3.4115 -1.6587 1.5044 -0.0000 0.0000 0.0000 -86.4730 8.3190 37.3576 19.4766 -30.0065 -5.2671 -0.0000 -0.0000 14.3507 3.9919 -34.1039 -2.2407 -7.1250 0.0000 -0.0000 -15.6700 -3.0815 17.1292 -0.0000 0.0000 0.0000 84.1512 -8.8350 41.6724 -18.1270 28.3194 -4.6093 0.0000 0.0000 14.6320 -1.4297 -54.3639 1.1621 7.1250 -0.0000 -0.0000 75.9718 -72.2042 -57.2089
0.00 0.00 0.00 -175.3900 -2.8904 -175.8210 0.0000 0.0000 0.0000 -15.7827 -3.0154 -12.9120 10.6306 17.7495 61.5760 0.0204 -1.4910 3.6704 1.2080 -6.9727 -19.6344 0.0000 0.0000 0.0000 32.4677 18.5406 -3.1492 -0.6822 -5.2811 14.7121 1.2615 -22.5378 -20.8965 -1.2425 -7.0680 19.9170 0.9866 -0.2086 8.4840 1.2100 -0.1084 -3.2218 0.7424 -0.0849 -8.1727 -5.7191 -3.0072 -3.2445 9.0629 -4.2055 2.4494 3.8922 -2.0593 1.7232 -0.0000 -0.0000 0.0000 -87.1999 6.1055 33.5529 19.3961 -29.9079 -5.2269 -0.0000 -0.0000 14.5770 6.8586 -35.2708 -3.9731 -7.1250 0.0000 -0.0000 -14.1924 -4.5341 15.7445 -0.0000 -0.0000 0.0000 83.7734 -7.4388 43.7730 -17.9787 28.1298 -4.5392 0.0000 0.0000 15.9356 -2.2976 -54.6923 1.8753 7.1250 -0.0000 -0.0000 76.6238 -72.5840 -58.2851
0.00 0.00 0.00 -175.9610 -3.7573 -176.9960 0.0000 0.0000 0.0000 -15.0315 -9.4687 -28.8239 12.8803 18.7385 68.7532 0.5497 -0.9692 -13.7052 1.3740 -7.4179 -20.9596 0.0000 0.0000 0.0000 34.7541 15.9548 0.2241 -1.1569 -6.8288 19.2091 0.4906 -21.6839 -26.9340 -1.4017 -7.4892 21.1730 -0.2573 0.5424 9.5468 0.2982 0.7140 -2.3707 0.3442 0.3676 -7.8794 -7.8699 -4.2686 -3.8181 12.5529 -6.3714 5.6751 4.8378 -3.0657 2.9594 0.0000 0.0000 0.0000 -86.9368 4.3007 33.0049 22.4674 -33.5013 -6.8421 -0.0000 -0.0000 9.4374 10.1452 -33.2404 -5.6021 -7.1250 0.0000 -0.0000 -12.2624 -2.9995 13.1867 0.0000 0.0000 0.0000 84.3862 -4.2359 45.1909 -17.5092 27.5242 -4.3200 0.0000 0.0000 16.7819 -2.8955 -55.2619 2.3801 7.1250 -0.0000 -0.0000 78.2060 -72.9072 -60.1946
0.00 0.00 0.00 -175.5550 -3.0158 -178.3320 0.0000 0.0000 0.0000 -13.8798 -14.5166 -31.2903 7.4956 15.7354 50.7248 0.9246 6.3296 -21.5181 1.3898 -7.4588 -21.0820 0.0000 0.0000 0.0000 36.6618 12.4609 7.6349 -0.6724 -5.2438 14.6052 0.6566 -22.4089 -26.7636 -1.3463 -7.3459 20.7443 0.6692 1.0127 9.7375 -0.2176 1.4175 -1.7031 -0.8300 0.6590 -7.2444 -9.2304 -4.7937 -3.5282 13.4035 -7.2272 6.6711 5.2837 -3.4993 3.3736 0.0000 -0.0000 0.0000 -86.2382 5.3096 32.2433 24.7123 -35.9085 -8.1206 -0.0000 -0.0000 5.3068 9.1314 -33.6063 -5.0839 -7.1250 0.0000 -0.0000 -12.8475 -3.2164 13.8941 0.0000 -0.0000 0.0000 84.7962 -3.3716 47.8843 -19.0435 29.4727 -5.0522 0.0000 0.0000 17.6859 -9.9872 -47.4243 7.3886 7.1250 -0.0000 -0.0000 50.2195 -72.4572 -35.0970
0.00 0.00 0.00 -175.2190 -2.6420 -178.3370 0.0000 0.0000 0.0000 -10.1847 -23.4603 -28.5667 3.1382 10.9155 31.9953 0.7421 11.3708 -24.0861 0.5064 -4.5617 -12.6626 0.0000 0.0000 0.0000 36.8821 7.9958 18.0631 0.0000 -0.0000 0.0000 1.4064 -23.2072 -20.7329 -1.3680 -7.4025 20.9134 1.3195 1.0509 9.0733 -0.4087 1.5300 -1.9456 -1.4021 0.6839 -7.0982 -9.9907 -4.6466 -3.0568 13.1820 -7.0984 7.6162 5.3589 -3.4677 3.5755 -0.0000 0.0000 0.0000 -86.6549 7.2260 28.3126 23.1724 -34.2768 -7.2351 -0.0000 -0.0000 6.3836 10.5469 -34.8629 -6.0749 -7.1250 0.0000 -0.0000 -12.1756 -4.6403 13.4169 -0.0000 0.0000 0.0000 84.7779 -4.2370 51.2049 -20.6825 31.4558 -5.8834 0.0000 0.0000 18.9527 -11.9398 -44.4838 8.4283 7.1250 -0.0000 -0.0000 41.2717 -71.2605 -27.2072
0.00 0.00 0.00 -175.1730 -1.9072 -177.7080 0.0000 0.0000 0.0000 -1.0046 -45.4256 -24.8681 1.6732 8.1494 23.1688 1.8325 21.8888 -40.8339 0.1518 2.5103 6.9181 0.0000 0.0000 0.0000 36.5825 5.7557 20.0407 0.0000 0.0000 -0.0000 1.3168 -22.4804 -20.0193 -0.9507 -6.2093 17.3930 1.6721 1.2089 8.1504 -0.5956 1.7544 -2.4907 -1.8135 0.7691 -7.1254 -9.9119 -4.6043 -3.2370 11.9356 -7.0223 8.8927 4.9516 -3.4494 3.9312 0.0000 0.0000 0.0000 -87.1886 8.7046 23.9785 19.8784 -30.4956 -5.4695 -0.0000 -0.0000 10.6758 10.7607 -34.6998 -6.1748 -7.1250 0.0000 -0.0000 -12.0454 -4.5129 13.2421 0.0000 0.0000 0.0000 85.1213 -5.0874 52.9477 -21.9252 32.8924 -6.5452 0.0000 0.0000 15.7969 -10.2732 -45.2752 7.3379 7.1250 -0.0000 -0.0000 44.6819 -71.2224 -29.6792
0.00 0.00 0.00 -180.8600 -0.4522 -178.3880 0.0000 0.0000 0.0000 -20.9563 -27.9766 -12.6273 1.3311 7.3060 20.6251 -0.3984 17.2857 -20.4583 0.6911 -5.3144 -14.8076 0.0000 0.0000 0.0000 24.5163 -2.2550 11.8661 -2.9302 -10.5812 30.8800 1.1602 -18.7094 -5.4800 -1.1086 -6.6895 18.7986 -0.3777 2.1784 4.8061 -2.6859 2.5814 -3.9062 -2.8589 1.1590 -6.6641 -9.6195 -3.9966 -3.7180 8.8626 -6.7728 15.9751 3.9309 -3.5928 6.0353 -0.0000 0.0000 0.0000 -84.4422 14.7405 24.2548 18.3480 -28.6005 -4.7147 -0.0000 -0.0000 17.0549 -0.5772 -32.3558 0.3089 -7.1250 0.0000 -0.0000 -18.0989 -1.0070 19.4022 -0.0000 0.0000 0.0000 84.9628 -13.6739 49.5613 -19.3105 29.8026 -5.1843 0.0000 0.0000 14.5517 -9.9798 -48.0022 7.4503 7.1250 -0.0000 -0.0000 51.7783 -72.7834 -36.6625
0.00 0.00 0.00 -183.1050 0.0266 -179.1000 0.0000 0.0000 0.0000 -26.3038 -23.7072 -6.1754 0.6897 5.3091 14.7923 -0.5523 16.9374 -17.8292 0.8669 -5.9368 -16.6013 0.0000 0.0000 0.0000 19.0480 -3.5213 2.4009 -6.7739 -15.1385 48.0140 0.7017 -18.9110 5.8685 -1.5231 -7.7927 22.0862 -1.5093 2.1970 5.0426 -3.1008 2.8224 -3.7859 -2.7094 1.4595 -6.6970 -9.7396 -3.7591 -2.9079 8.5399 -6.4099 15.4915 3.8908 -3.4602 5.7031 -0.0000 0.0000 0.0000 -83.5731 14.3845 27.7089 20.0671 -30.7231 -5.5656 -0.0000 -0.0000 14.2208 1.8745 -32.7070 -1.0131 -7.1250 0.0000 -0.0000 -16.7741 -1.5389 17.9998 -0.0000 0.0000 0.0000 82.8957 -15.2934 52.1426 -20.7085 31.4865 -5.8970 0.0000 0.0000 13.6170 -8.8382 -50.0261 6.7952 7.1250 -0.0000 -0.0000 58.5043 -73.3975 -42.8582
0.00 0.00 0.00 -185.1950 0.9441 -179.9090 0.0000 0.0000 0.0000 -31.2239 -19.2863 1.0996 0.2865 3.4425 9.5131 -0.3641 15.9857 -18.5974 0.7551 -5.5499 -15.4838 0.0000 0.0000 0.0000 15.1825 -2.6432 -12.6705 -12.3871 -18.5495 67.2107 0.9286 -17.8377 -0.1100 -1.5259 -7.7995 22.1068 -3.8433 1.8752 6.1085 -3.1212 2.1594 -3.1632 -1.3801 1.2347 -6.7635 -7.4683 -3.3253 -4.0466 5.9594 -5.4838 15.8412 2.7349 -3.0008 5.7987 0.0000 -0.0000 0.0000 -82.7950 10.1778 27.5401 19.8366 -30.4450 -5.4483 -0.0000 -0.0000 10.2960 10.0947 -35.1835 -5.8570 -7.1250 0.0000 -0.0000 -12.4478 -4.8866 13.7803 0.0000 -0.0000 0.0000 83.2923 -14.0189 49.5434 -19.9107 30.5347 -5.4859 0.0000 0.0000 14.0348 -8.9841 -49.6611 6.8715 7.1250 -0.0000 -0.0000 57.3042 -73.2798 -41.7191
0.00 0.00 0.00 -185.0740 -0.9463 -179.7490 0.0000 0.0000 0.0000 -33.0769 -18.2667 1.8281 0.7883 5.6680 15.8241 0.5121 13.0533 -23.8103 1.4124 -7.5167 -21.2554 0.0000 0.0000 0.0000 16.7450 0.6350 -24.8133 -12.2202 -18.4822 66.6850 0.0491 -13.5382 -18.6506 -0.8661 -5.9342 16.5938 -4.2604 0.9141 6.8237 -2.4395 0.4952 -3.2689 -0.2287 0.3216 -7.2954 -6.4470 -2.7055 -3.5359 4.2974 -4.4353 15.1513 2.1241 -2.5295 5.3686 0.0000 -0.0000 0.0000 -83.3462 5.5938 24.0756 18.2935 -28.5314 -4.6886 -0.0000 -0.0000 17.6842 8.8253 -33.3402 -4.8774 -7.1250 0.0000 -0.0000 -12.9971 -2.9166 13.9994 0.0000 -0.0000 0.0000 85.7776 -13.1889 43.7633 -18.7421 29.0969 -4.9048 0.0000 0.0000 14.4597 -13.8725 -53.8001 11.2709 7.1250 -0.0000 -0.0000 69.3174 -76.6608 -56.0232
